<svg xmlns="http://www.w3.org/2000/svg" viewBox="380 540 1330 1440" fill="#0091d6">
  <path d="M 688.263 1011.27 C 734.556 1015.47 778.619 1020.95 825.61 1024.28 C 947.318 1033.4 1069.47 1035.06 1191.38 1029.26 C 1238.78 1026.83 1286.13 1023.55 1333.41 1019.41 C 1358.02 1017.11 1385.22 1013.1 1409.51 1011.75 C 1411.74 1029.86 1419.26 1057.85 1423.59 1076.4 C 1447.69 1179.67 1481.72 1261.64 1542.57 1347.88 C 1557.2 1368.42 1573.18 1387.97 1590.39 1406.4 C 1602.65 1419.59 1616.7 1432.45 1627.91 1446.45 C 1651.5 1475.89 1664.93 1509.37 1670.66 1546.42 C 1652.7 1551.41 1624.72 1556.23 1605.83 1559.99 C 1538.88 1573.19 1471.43 1583.72 1403.65 1591.56 C 1375.96 1593.82 1346.64 1597.91 1318.53 1600.54 C 1268.1 1604.98 1217.57 1608.34 1167 1610.61 C 958.288 1618.6 749.313 1604.98 543.408 1569.96 C 503.649 1563.19 464.755 1554.64 425.28 1546.62 C 428.272 1534.35 429.508 1524.97 433.429 1511.98 C 449.795 1454.29 495.034 1422.93 531.027 1378.35 C 595.989 1297.91 639.372 1204.41 665.478 1104.5 C 670.117 1086.24 674.56 1067.92 678.808 1049.56 C 680.409 1042.52 685.682 1016 688.263 1011.27 z" />
  <path d="M 1677.26 1573.39 C 1682.14 1572.73 1684.98 1575.86 1687.47 1579.63 C 1707.5 1609.91 1713.61 1653.01 1708.38 1687.69 C 1693.94 1692.26 1662.64 1697.7 1646.65 1700.77 C 1601.87 1709.61 1556.86 1717.3 1511.67 1723.82 C 1147.61 1778.42 776.769 1768.35 416.205 1694.08 C 406.775 1691.95 399.017 1691.03 389.348 1688.29 C 388.496 1684.88 387.973 1681.36 387.52 1677.87 C 382.796 1640.77 392.864 1603.31 415.546 1573.57 C 459.518 1579.27 507.776 1589.48 552.367 1596.6 C 641.822 1611.17 731.735 1622.76 821.959 1631.37 C 887.512 1637.66 953.284 1641.41 1019.13 1642.6 C 1171.28 1644.24 1320.11 1629.91 1470.54 1608.09 C 1519.33 1600.79 1568.02 1592.78 1616.58 1584.07 C 1636.49 1580.62 1657.43 1576.23 1677.26 1573.39 z" />
  <path d="M 703.315 884.001 C 722.445 884.86 747.087 889.054 766.393 891.812 C 786.042 894.595 805.764 896.84 825.536 898.544 C 910.811 906.658 996.47 910.038 1082.12 908.667 C 1150.78 907.804 1219.36 903.978 1287.69 897.199 C 1308.87 894.766 1330 891.938 1351.08 888.718 C 1363.35 886.946 1378.97 884.356 1391.15 883.872 L 1392.8 883.814 C 1393.78 894.527 1403.05 958.029 1399.88 963.229 L 1397.24 963.697 C 1285.73 978.677 1173.32 985.877 1060.82 985.244 C 986.384 985.892 911.953 983.547 837.706 978.216 C 790.816 974.673 741.617 968.834 695.01 963.244 C 697.445 936.796 700.214 910.379 703.315 884.001 z" />
  <path d="M 1214.14 771.338 C 1218.49 766.335 1227.1 755.474 1233.21 753.583 C 1240.07 751.85 1247.91 754.356 1254.67 755.047 C 1282.81 758 1311.3 763.809 1337.83 773.868 C 1357.19 781.203 1381.06 797.438 1387.58 818.142 C 1389.26 824.855 1386.01 830.67 1379.29 832.664 C 1368.32 835.915 1356.4 837.206 1345.11 839.089 C 1320.04 843.27 1295.16 847.135 1269.91 850.083 C 1105.4 871.945 923.703 865.956 760.068 840.091 C 739.566 836.85 688.96 838.206 714.68 805.798 C 747.008 765.063 808.96 760.772 857.127 753.359 C 868.941 752.25 875.155 762.786 882.231 771.099 C 909.36 771.113 934.885 769.111 961.341 768.868 C 965.256 776.001 969.066 783.191 972.771 790.437 L 1124.59 790.365 C 1128.44 783.634 1132.33 775.28 1136.21 768.144 C 1162.16 769.735 1188.14 770.8 1214.14 771.338 z" />
  <path d="M 978.847 1797.53 C 1002.49 1796.26 1032.97 1797.36 1057.26 1797.22 C 1073.77 1797.12 1105.52 1796.45 1120.99 1797.83 C 1121.36 1824.23 1124.1 1900.12 1118.03 1921.37 C 1114.25 1934.58 1107.78 1944.47 1098.32 1954.27 C 1097.39 1955.11 1096.44 1955.93 1095.47 1956.73 C 1063.22 1982.89 1017.52 1978.8 991.685 1946.07 C 984.991 1937.7 980.294 1927.91 977.952 1917.46 C 972.731 1894.08 978.455 1854.9 976.27 1830.31 C 975.486 1821.49 976.668 1810.23 976.164 1801.14 C 976.039 1798.89 977.305 1798.54 978.847 1797.53 z" />
  <path d="M 927.634 548.435 C 944.124 547.352 969.389 548.026 986.697 547.971 L 986.906 604.094 C 972.75 604.379 956.08 601.885 942.358 605.352 C 935.828 607.002 932.636 612.01 929.625 617.708 C 930.419 659.638 941.285 711.125 943.484 753.858 C 929.586 754.035 910.48 756.014 896.251 757.072 C 890.03 718.951 882.218 679.735 875.217 641.578 C 867.46 599.299 878.594 556.429 927.634 548.435 z" />
  <path d="M 1114.34 547.19 C 1151.63 547.213 1193.23 540.943 1216.9 575.739 C 1222.99 584.567 1226.69 594.819 1227.64 605.499 C 1229.63 626.122 1220.32 670.028 1216.14 691.119 C 1212.51 709.749 1208.98 728.398 1205.54 747.065 C 1205.11 749.874 1203.84 753.294 1202.95 756.058 C 1187.8 755.42 1172.65 754.667 1157.5 753.801 C 1158.58 725.685 1163.42 695.444 1166.6 667.422 C 1168.64 649.535 1171.4 635.309 1170.98 617.111 C 1159.87 597.304 1135.63 603.319 1115 603.311 C 1114.92 584.603 1114.7 565.895 1114.34 547.19 z" />
</svg>
